<?xml version="1.0" encoding="utf-8"?>
<!-- Generator: Adobe Illustrator 17.1.0, SVG Export Plug-In . SVG Version: 6.00 Build 0)  -->
<!DOCTYPE svg PUBLIC "-//W3C//DTD SVG 1.1//EN" "http://www.w3.org/Graphics/SVG/1.1/DTD/svg11.dtd">
<svg version="1.1" id="Layer_1" xmlns="http://www.w3.org/2000/svg" xmlns:xlink="http://www.w3.org/1999/xlink" x="0px" y="0px"
	 viewBox="0 0 270 76.3" enable-background="new 0 0 270 76.3" xml:space="preserve">
<g>
	<polygon id="XMLID_76_" fill="#E84648" points="89.1,30.5 79.2,14.3 73.6,14.3 73.6,40.7 79.1,40.7 79.1,24.9 88.9,40.7 94.6,40.7 
		94.6,14.3 89.1,14.3 	"/>
	<path id="XMLID_73_" fill="#E84648" d="M113.3,14.3c-2.1,0-3.9,0.3-5.5,1c-1.2,0.5-2.3,1.3-3.3,2.3c-1,1-1.8,2.2-2.4,3.5
		c-0.8,1.8-1.2,3.9-1.2,6.5c0,4,1.1,7.2,3.4,9.6c2.2,2.3,5.3,3.5,9.1,3.5c3.7,0,6.8-1.2,9-3.5c2.2-2.3,3.4-5.6,3.4-9.7
		c0-4.1-1.1-7.4-3.4-9.7C120.1,15.5,117.1,14.3,113.3,14.3z M119.8,27.4c0,2.8-0.6,4.9-1.8,6.2c-1.2,1.4-2.7,2-4.7,2
		c-1.9,0-3.4-0.7-4.7-2.1c-1.2-1.4-1.9-3.4-1.9-6.2c0-2.8,0.6-4.8,1.8-6.2c1.2-1.3,2.8-2,4.7-2c2,0,3.5,0.6,4.7,2
		C119.2,22.6,119.8,24.7,119.8,27.4z"/>
	<path id="XMLID_72_" fill="#E84648" d="M207.9,30.9c-0.2-0.2-0.4-0.4-0.5-0.6c-0.3-0.4-0.6-0.7-1-1.1c1.8-0.4,2.8-1.2,3.8-2.3
		c1.2-1.3,1.8-3,1.8-5c0-1.6-0.4-3-1.2-4.2c-0.8-1.2-1.8-2.1-3.2-2.6c-1.3-0.5-3.3-0.7-6.1-0.7h-11.3v26.4h5.9V19.4h3.7
		c2.6,0,3.4,0,3.7,0.1c0.7,0.1,1.3,0.4,1.7,0.9c0.4,0.5,0.6,1.1,0.6,1.9c0,0.7-0.2,1.3-0.5,1.7c-0.3,0.5-0.7,0.8-1.3,0.9
		c-0.4,0.1-1.5,0.3-4.5,0.3v0.7c0,0,0,0,0,0l0.1,3.8l-0.2,0.3c0.3,0.2,0.6,0.5,0.9,0.8c0.1,0.1,0.2,0.3,0.4,0.4
		c0.5,0.5,1.4,1.8,2.7,3.7l3.8,5.7h7l-3.5-5.6C209.7,33.1,208.7,31.7,207.9,30.9z"/>
	<path id="XMLID_71_" fill="#E84648" d="M234.7,28.6c0,2-0.1,3.4-0.2,4.2c-0.1,0.8-0.5,1.4-1.2,2c-0.7,0.5-1.7,0.8-3,0.8
		c-1.3,0-2.4-0.3-3.2-0.9c-0.8-0.6-1.2-1.3-1.4-2.3c-0.1-0.6-0.2-2-0.2-4.2V14.3h-5.8v13.8c0,2.8,0.2,5,0.5,6.5c0.2,1,0.7,2,1.5,2.9
		c0.8,0.9,1.8,1.7,3.1,2.3c1.3,0.6,3.2,0.9,5.6,0.9c2,0,3.7-0.3,5-0.8c1.3-0.5,2.3-1.3,3.1-2.2c0.8-0.9,1.3-2,1.6-3.3
		c0.3-1.3,0.4-3.5,0.4-6.5V14.3h-5.8V28.6z"/>
	<polygon id="XMLID_70_" fill="#E84648" points="262.8,14.3 262.8,30.5 252.9,14.3 247.3,14.3 247.3,40.7 252.8,40.7 252.8,24.9 
		262.6,40.7 268.3,40.7 268.3,14.3 	"/>
	<path id="XMLID_67_" fill="#E84648" d="M150.1,26.6c0.8-0.5,1.5-1.2,2-2c0.7-1.1,1-2.2,1-3.5c0-1.2-0.3-2.2-0.8-3.2
		c-0.6-0.9-1.3-1.7-2.1-2.3c-0.8-0.6-1.8-0.9-2.8-1.1c-1-0.2-2.6-0.3-4.6-0.3h-10.6v5l8.5,0c2.4,0,3.9,0,4.4,0.1
		c0.8,0.1,1.3,0.4,1.7,0.8c0.4,0.4,0.6,1,0.6,1.7c0,0.7-0.2,1.3-0.7,1.8c-0.4,0.4-1.1,0.7-1.9,0.8c-0.5,0.1-1.7,0.1-3.7,0.1h-8.9
		v16.2h9.1h0c3.4,0,5.4-0.1,6.3-0.2c1.4-0.2,2.7-0.6,3.6-1.3c1-0.7,1.8-1.6,2.3-2.8c0.6-1.1,0.9-2.3,0.9-3.6c0-1.6-0.4-2.9-1.3-4.1
		C152.3,27.9,151.3,27.1,150.1,26.6z M148.3,32.7c0,0.8-0.2,1.5-0.6,1.9c-0.4,0.5-1,0.8-1.7,0.9c-0.5,0.1-1.6,0.1-3.5,0.1h-4.4v-6.1
		h3.8c2.3,0,3.8,0.1,4.5,0.3c0.6,0.2,1.1,0.6,1.4,1C148.2,31.4,148.3,32,148.3,32.7z"/>
	<polygon id="XMLID_66_" fill="#E84648" points="174.5,14.3 168.5,14.3 158.2,40.7 164.5,40.7 166.7,34.6 171.4,21.7 176.2,34.3 
		176.4,34.9 169.4,34.9 167.5,40.7 172.8,40.7 178.6,40.7 178.6,40.7 184.9,40.7 184.9,40.2 	"/>
	<g id="XMLID_35_">
		<path id="XMLID_64_" fill="#3B8CCB" d="M74.6,46.9h1.8v9.2h-1.8V46.9z"/>
		<path id="XMLID_62_" fill="#3B8CCB" d="M91.1,52v-5.1h1.8v9.2l-5.4-5.1v5.1h-1.8v-9.2L91.1,52z"/>
		<path id="XMLID_60_" fill="#3B8CCB" d="M106.4,46.9h2.3v1.8h-2.3v7.4h-1.8v-7.4h-2.3v-1.8h2.3H106.4z"/>
		<path id="XMLID_58_" fill="#3B8CCB" d="M123.3,46.9v1.8h-3.6v1.9h2.7v1.8h-2.7v1.8h3.6v1.9h-3.6h-1.8v-3.7v-1.8v-3.7H123.3z"/>
		<path id="XMLID_55_" fill="#3B8CCB" d="M132.5,53.4v-3.2v-3.2h1.8h1.3c0.9,0,1.6,0.3,2.2,1c0.6,0.6,0.9,1.4,0.9,2.3
			c0,0.7-0.2,1.3-0.6,1.9c-0.4,0.5-0.9,0.9-1.5,1.2l2,3h-2.2l-2.3-3.4v3.4h-1.8V53.4z M135.6,51.5c0.4,0,0.7-0.1,1-0.4
			c0.3-0.3,0.4-0.6,0.4-1c0-0.4-0.1-0.7-0.4-1c-0.3-0.3-0.6-0.4-1-0.4h-1.3v1.4v1.4H135.6z"/>
		<path id="XMLID_53_" fill="#3B8CCB" d="M153.4,52v-5.1h1.8v9.2l-5.4-5.1v5.1H148v-9.2L153.4,52z"/>
		<path id="XMLID_50_" fill="#3B8CCB" d="M167,54.8l-0.6,1.3h-0.3H166h-1.2h-0.4l3.9-8.8l0.2-0.4l0.2,0.4l3.9,8.8h-0.4H171h-0.1
			h-0.3l-0.6-1.3l0-0.1L167,54.8L167,54.8z M169.2,52.9l-0.7-1.6l-0.7,1.6H169.2z"/>
		<path id="XMLID_48_" fill="#3B8CCB" d="M185.4,46.9h2.3v1.8h-2.3v7.4h-1.8v-7.4h-2.3v-1.8h2.3H185.4z"/>
		<path id="XMLID_46_" fill="#3B8CCB" d="M199.7,46.9h1.8v9.2h-1.8V46.9z"/>
		<path id="XMLID_43_" fill="#3B8CCB" d="M218.5,48.3c0.9,0.9,1.3,2,1.3,3.3c0,1.3-0.4,2.4-1.3,3.3c-0.9,0.9-1.9,1.4-3.2,1.4
			c-1.2,0-2.3-0.5-3.2-1.4c-0.9-0.9-1.3-2-1.3-3.3c0-1.3,0.4-2.4,1.3-3.3c0.9-0.9,1.9-1.4,3.2-1.4C216.6,46.9,217.6,47.4,218.5,48.3
			z M213.4,49.6c-0.5,0.5-0.8,1.2-0.8,2c0,0.8,0.3,1.4,0.8,2c0.5,0.5,1.2,0.8,1.9,0.8c0.7,0,1.4-0.3,1.9-0.8c0.5-0.5,0.8-1.2,0.8-2
			c0-0.8-0.3-1.4-0.8-2c-0.5-0.5-1.2-0.8-1.9-0.8C214.6,48.8,213.9,49,213.4,49.6z"/>
		<path id="XMLID_41_" fill="#3B8CCB" d="M234.1,52v-5.1h1.8v9.2l-5.4-5.1v5.1h-1.8v-9.2L234.1,52z"/>
		<path id="XMLID_38_" fill="#3B8CCB" d="M247.7,54.8l-0.6,1.3h-0.3h-0.1h-1.2h-0.4l3.9-8.8l0.2-0.4l0.2,0.4l3.9,8.8h-0.4h-1.2h-0.1
			h-0.3l-0.6-1.3l0-0.1L247.7,54.8L247.7,54.8z M249.9,52.9l-0.7-1.6l-0.7,1.6H249.9z"/>
		<path id="XMLID_36_" fill="#3B8CCB" d="M263.8,46.9v7.4h3.6v1.9H262v-9.2H263.8z"/>
	</g>
	<g id="XMLID_33_">
		<rect id="XMLID_34_" x="74" y="58" fill="#E84648" width="193" height="2"/>
	</g>
	<g id="XMLID_31_">
		<rect id="XMLID_32_" x="74" y="43" fill="#E84648" width="193" height="1"/>
	</g>
	<g>
		<path id="XMLID_30_" fill="#3B8CCB" d="M17.2,59.9c3.9,0,7.9,0,11.8,0c11.3-0.1,22.6,0,33.9-0.1c0-15.3,0-30.6,0-45.9
			c-10.8,0-21.7,0-32.5,0c0.8,0.9,1.6,1.9,2.7,2.4c9.2-0.1,18.3,0,27.5-0.1c0,13.8,0,27.6,0,41.3c-13.7,0-27.5,0-41.2,0
			c0-8-0.1-15.9,0.1-23.9c-0.7-0.7-1.5-1.3-2.3-1.9C17.2,41.3,17.2,50.6,17.2,59.9z"/>
		<g>
			<path id="XMLID_29_" fill="#E84648" d="M21.4,55.8c8.5-0.1,17,0.2,25.4-0.2c-2.1-0.7-4.3-1-6.4-1.4c-6.3-1.3-12.7-2.5-19-3.8
				C21.4,52.3,21.4,54,21.4,55.8z"/>
			<path id="XMLID_28_" fill="#E84648" d="M45.4,18c3.7,8.8,7.4,17.7,11.4,26.4c-0.2-2.3-0.9-4.5-1.4-6.7c-1.5-6.6-3-13.1-4.6-19.7
				C49,18.1,47.2,18,45.4,18z"/>
			<path id="XMLID_27_" fill="#E84648" d="M21.4,43.5c8.5,2.8,17.1,5.5,25.6,8.2c-8.5-4.4-17.2-8.4-25.8-12.5
				C21.2,40.6,21.3,42.1,21.4,43.5z"/>
			<path id="XMLID_26_" fill="#E84648" d="M21.5,37.7c8.5,4,16.9,8.2,25.5,12c-6-4-12.1-8-18.2-12C20,32,11.8,25.6,3,19.9
				c4.7,4.1,9.4,8.2,14.2,12c0.8,0.6,1.5,1.2,2.3,1.9C20.7,34.8,21.6,36.1,21.5,37.7z"/>
			<path id="XMLID_25_" fill="#E84648" d="M43.6,41.4c1.7,1.3,3.2,2.8,5,3.9c-5-5.1-10.3-9.9-15.4-14.9C26.5,23.9,19,18.2,11.9,12.1
				c-2-1.5-3.7-3.4-6-4.6c1.3,2,3.3,3.4,4.9,5.1c5,4.7,9.9,9.5,15,14.1C31.6,31.8,37.6,36.6,43.6,41.4z"/>
			<path id="XMLID_24_" fill="#E84648" d="M41.8,43.8c1.9,1.2,3.6,2.7,5.6,3.6C39.9,41.2,32.4,35,24.7,29
				C16.8,23.3,8.9,17.6,0.8,12.2c5,4.7,10.6,8.9,15.8,13.3C24.5,32.3,33.3,37.9,41.8,43.8z"/>
			<path id="XMLID_23_" fill="#E84648" d="M31.4,25.6c6.4,6.5,13.1,12.8,19.8,19c-4.7-5.7-9.7-11-14.5-16.5
				c-7.2-8.3-15.2-15.9-23.1-23.6c-1.3-1.3-2.5-2.7-4-3.7C16.8,9,24.1,17.4,31.4,25.6z"/>
			<path id="XMLID_22_" fill="#E84648" d="M50.5,36.7c1.6,2.5,2.9,5.1,4.6,7.5c-3.6-8.8-7.6-17.4-11.3-26.1c-1.5,0-3.1,0-4.6,0
				C42.8,24.4,46.7,30.5,50.5,36.7z"/>
			<path id="XMLID_21_" fill="#E84648" d="M30.5,16.7c7.7,8.9,14.8,18.2,22.4,27.2C48,35.2,42.8,26.7,37.7,18.2c-0.9,0-1.8,0-2.7,0
				c-0.6-0.6-1.2-1.1-1.8-1.7C32,15.9,31.2,15,30.5,14c-3.8-3.9-7.6-7.7-11.7-11.3C22.5,7.5,26.6,12,30.5,16.7z"/>
			<g id="XMLID_19_">
				<path id="XMLID_20_" fill="#E84648" d="M40.1,52.7c2.3,0.4,4.6,1.1,7,1.2C38.5,51.1,30,48,21.3,45.3c0,1.2,0,2.5,0.1,3.7
					C27.6,50.2,33.8,51.5,40.1,52.7z"/>
			</g>
			<g id="XMLID_17_">
				<path id="XMLID_18_" fill="#E84648" d="M57.2,39.3c0.5,2.2,0.8,4.5,1.6,6.7c0-9.3,0-18.6,0-27.9c-2,0-3.9,0-5.9,0
					C54.3,25.1,55.7,32.2,57.2,39.3z"/>
			</g>
		</g>
	</g>
	<g>
		<path d="M93.1,70.8l-0.9,3.9h-1.3l2.7-11.5h3.6c2,0,2.8,0.9,2.8,2.7c0,2.9-1.6,4.9-4.5,4.9H93.1z M95.8,69.6c2,0,2.9-1.7,2.9-3.8
			c0-1.1-0.4-1.6-1.7-1.6h-2.5l-1.2,5.4H95.8z"/>
		<path d="M101.8,66.3h1.2l-0.3,1.2c0,0,1.5-1.1,3-1.4l-0.3,1.3c-1.1,0.3-2.9,1.2-2.9,1.2l-1.4,6h-1.2L101.8,66.3z"/>
		<path d="M112.4,69c0,3-1.6,5.8-4.2,5.8c-1.8,0-2.8-0.8-2.8-2.7c0-3.1,1.7-5.9,4.2-5.9C111.4,66.1,112.4,67,112.4,69z M111.1,68.9
			c0-1-0.5-1.7-1.6-1.7c-1.8,0-2.9,2.4-2.9,4.9c0,1,0.5,1.6,1.6,1.6C110,73.7,111.1,71.4,111.1,68.9z"/>
		<path d="M115.4,66.3l0.1,7.3h0.5l3.6-7.3h1.3l-4.2,8.3h-2.3l-0.2-8.3H115.4z"/>
		<path d="M126.3,73.3l-0.1,1c0,0-1.5,0.5-3,0.5c-1.6,0-2.5-0.8-2.5-2.5c0-2.9,1.4-6.1,4.5-6.1c1.5,0,2.5,0.6,2.5,2
			c0,2-1.5,2.7-4.7,2.7h-0.8c-0.1,0.4-0.2,1-0.2,1.3c0,1,0.6,1.5,1.6,1.5C124.7,73.7,126.3,73.3,126.3,73.3z M123.2,69.8
			c2.2,0,3.2-0.4,3.2-1.7c0-0.7-0.5-1-1.3-1c-1.5,0-2.4,1.1-2.8,2.7H123.2z"/>
		<path d="M127.9,74.6l1.9-8.3h1.2l-0.3,1.4c0,0,1.3-1.6,2.7-1.6c1.3,0,2,0.8,2,2.1c0,0.7-0.2,1.6-0.3,2.2l-1,4.2h-1.2l1-4.1
			c0.1-0.5,0.3-1.4,0.3-2c0-0.8-0.3-1.2-1.1-1.2c-1.1,0-2.6,1.9-2.6,1.9l-1.3,5.5H127.9z"/>
		<path d="M142.3,70.8l-0.9,3.9h-1.3l2.7-11.5h3.6c2,0,2.8,0.9,2.8,2.7c0,2.9-1.6,4.9-4.5,4.9H142.3z M145,69.6c2,0,2.9-1.7,2.9-3.8
			c0-1.1-0.4-1.6-1.7-1.6h-2.5l-1.2,5.4H145z"/>
		<path d="M149.4,72.3c0-2.6,1.4-6.2,4.2-6.2c1,0,3.4,0.4,3.4,0.4l-1.3,5.4c-0.2,1-0.5,2.6-0.5,2.6l-1.2,0.1c0,0,0.2-1.4,0.3-1.8
			c0,0-1.4,1.9-2.8,1.9C150,74.8,149.4,73.8,149.4,72.3z M150.7,72.3c0,0.9,0.3,1.4,1.2,1.4c1,0,2.7-2.2,2.7-2.2l0.9-4.1
			c0,0-1.2-0.2-1.9-0.2C151.7,67.2,150.7,70.2,150.7,72.3z"/>
		<path d="M159.3,66.3h1.2l-0.3,1.2c0,0,1.5-1.1,3-1.4l-0.3,1.3c-1.1,0.3-2.9,1.2-2.9,1.2l-1.4,6h-1.2L159.3,66.3z"/>
		<path d="M165.8,67.4l-1,4.2c-0.1,0.5-0.2,1-0.2,1.4c0,0.5,0.2,0.8,0.8,0.8c0.4,0,1.3-0.1,1.3-0.1l-0.1,0.9c0,0-0.9,0.2-1.6,0.2
			c-1.1,0-1.7-0.6-1.7-1.6c0-0.5,0.1-1.2,0.3-1.7l1-4.1h-1.1l0.3-1.1h1.1l0.6-2.5h1.2l-0.6,2.5h2.3l-0.3,1.1H165.8z"/>
		<path d="M167.9,74.6l1.9-8.3h1.2l-0.3,1.4c0,0,1.3-1.6,2.7-1.6c1.3,0,2,0.8,2,2.1c0,0.7-0.2,1.6-0.3,2.2l-1,4.2h-1.2l1-4.1
			c0.1-0.5,0.3-1.4,0.3-2c0-0.8-0.3-1.2-1.1-1.2c-1.1,0-2.6,1.9-2.6,1.9l-1.3,5.5H167.9z"/>
		<path d="M182.2,73.3l-0.1,1c0,0-1.5,0.5-3,0.5c-1.6,0-2.5-0.8-2.5-2.5c0-2.9,1.4-6.1,4.5-6.1c1.5,0,2.5,0.6,2.5,2
			c0,2-1.5,2.7-4.7,2.7H178c-0.1,0.4-0.2,1-0.2,1.3c0,1,0.6,1.5,1.6,1.5C180.7,73.7,182.2,73.3,182.2,73.3z M179.1,69.8
			c2.2,0,3.2-0.4,3.2-1.7c0-0.7-0.5-1-1.3-1c-1.5,0-2.4,1.1-2.8,2.7H179.1z"/>
		<path d="M185.8,66.3h1.2l-0.3,1.2c0,0,1.5-1.1,3-1.4l-0.3,1.3c-1.1,0.3-2.9,1.2-2.9,1.2l-1.4,6h-1.2L185.8,66.3z"/>
		<path d="M201.3,64.3c0,0-1.8-0.3-2.9-0.3c-1.6,0-2.7,0.8-2.7,2.4c0,0.9,0.5,1.2,2.1,1.7c1.7,0.6,2.3,1.1,2.3,2.6
			c0,2.5-1.6,4-4.1,4c-1.6,0-3.3-0.4-3.3-0.4l0.2-1c0,0,1.9,0.3,3.2,0.3c1.7,0,2.8-1,2.8-2.7c0-0.9-0.4-1.2-1.9-1.7
			c-1.6-0.6-2.5-1.1-2.5-2.6c0-2.3,1.6-3.6,4-3.6c1.5,0,3.1,0.5,3.1,0.5L201.3,64.3z"/>
		<path d="M203,66.3h1.2l-1.9,8.3h-1.2L203,66.3z M203.8,63.1h1.2l-0.3,1.5h-1.3L203.8,63.1z"/>
		<path d="M204.5,74.6l1.9-8.3h1.2l-0.3,1.4c0,0,1.3-1.6,2.7-1.6c1.3,0,2,0.8,2,2.1c0,0.7-0.2,1.6-0.3,2.2l-1,4.2h-1.2l1-4.1
			c0.1-0.5,0.3-1.4,0.3-2c0-0.8-0.3-1.2-1.1-1.2c-1.1,0-2.6,1.9-2.6,1.9l-1.3,5.5H204.5z"/>
		<path d="M219.7,66.4l-0.3,1c0,0-1.1-0.2-1.8-0.2c-2.1,0-3.1,2.5-3.1,4.8c0,1.1,0.5,1.7,1.7,1.7c0.6,0,1.9-0.2,1.9-0.2l-0.1,1
			c0,0-1.1,0.3-2.2,0.3c-1.7,0-2.6-0.9-2.6-2.5c0-3.2,1.4-6.1,4.4-6.1C218.6,66.1,219.7,66.4,219.7,66.4z"/>
		<path d="M225.4,73.3l-0.1,1c0,0-1.5,0.5-3,0.5c-1.6,0-2.5-0.8-2.5-2.5c0-2.9,1.4-6.1,4.5-6.1c1.5,0,2.5,0.6,2.5,2
			c0,2-1.5,2.7-4.7,2.7h-0.8c-0.1,0.4-0.2,1-0.2,1.3c0,1,0.6,1.5,1.6,1.5C223.9,73.7,225.4,73.3,225.4,73.3z M222.4,69.8
			c2.2,0,3.2-0.4,3.2-1.7c0-0.7-0.5-1-1.3-1c-1.5,0-2.4,1.1-2.8,2.7H222.4z"/>
		<path d="M230.8,74.6l0.2-1l4.3-3.6c1.8-1.5,3.1-2.7,3.1-3.9c0-1.1-0.7-1.5-2.1-1.5c-1.3,0-3,0.3-3,0.3l0.1-1c0,0,1.7-0.5,3.1-0.5
			c2.1,0,3.1,0.7,3.1,2.4c0,1.8-1.3,3.1-3,4.4l-4,3.2h5.5l-0.3,1.1H230.8z"/>
		<path d="M249.2,66.7c0,4.2-2,8.1-5.2,8.1c-2.2,0-3.3-1.1-3.3-3.2c0-4,1.8-8.1,5.1-8.1C248.1,63.4,249.2,64.6,249.2,66.7z
			 M242,71.4c0,1.5,0.7,2.2,2,2.2c2.5,0,3.9-3.9,3.9-6.8c0-1.5-0.6-2.3-2-2.3C243.2,64.6,242,68.7,242,71.4z"/>
		<path d="M256.2,63.6h1.1l-2.5,11h-1.3l2.2-9.5l-3.1,1.7l-0.3-1L256.2,63.6z"/>
		<path d="M261.5,63.6h6.6l-0.4,1.9l-6.4,9.3l-1.2-0.4l6.4-9.1l0.1-0.6h-5.3L261.5,63.6z"/>
	</g>
</g>
</svg>
